<svg xmlns="http://www.w3.org/2000/svg" xmlns:xlink="http://www.w3.org/1999/xlink" width="680" zoomAndPan="magnify" viewBox="0 0 510 149.999998" height="200" preserveAspectRatio="xMidYMid meet" version="1.0"><defs><g/><clipPath id="id1"><path d="M 67 30.265625 L 72.414062 30.265625 L 72.414062 36 L 67 36 Z M 67 30.265625 " clip-rule="nonzero"/></clipPath></defs><rect x="-51" width="612" fill="#ffffff" y="-15" height="179.999997" fill-opacity="1"/><rect x="-51" width="612" fill="#f2f7f5" y="-15" height="179.999997" fill-opacity="1"/><rect x="-51" width="612" fill="#ffffff" y="-15" height="179.999997" fill-opacity="1"/><rect x="-51" width="612" fill="#f2f7f5" y="-15" height="179.999997" fill-opacity="1"/><path fill="#fa5246" d="M 490.320312 232.867188 C 515.703125 230.320312 586.34375 224.394531 565.683594 158.792969 C 545.023438 93.195312 512.933594 63.277344 463.457031 91.921875 C 413.984375 120.566406 403.359375 152.324219 424.019531 187.683594 C 444.679688 223.046875 453.878906 236.527344 490.320312 232.867188 " fill-opacity="1" fill-rule="nonzero"/><path fill="#ef9645" d="M 53.015625 35.96875 C 53.597656 35.558594 54.476562 35.636719 55 36.070312 L 54.398438 35.195312 C 53.917969 34.503906 54.089844 33.753906 54.78125 33.265625 C 55.46875 32.78125 56.421875 32.949219 56.90625 33.644531 L 62.378906 41.488281 L 62.421875 41.46875 L 57.421875 34.085938 C 56.9375 33.386719 57.027344 32.5 57.722656 32.007812 C 58.417969 31.519531 59.378906 31.6875 59.867188 32.390625 L 66.328125 41.5625 C 66.816406 42.265625 66.578125 43.222656 65.882812 43.710938 C 65.761719 43.796875 65.636719 43.855469 65.503906 43.898438 L 65.503906 49.589844 L 59.304688 49.589844 L 59.304688 47.648438 C 59.214844 47.570312 58.703125 47.171875 58.632812 47.070312 L 52.636719 38.136719 C 52.144531 37.433594 52.316406 36.460938 53.015625 35.96875 Z M 53.015625 35.96875 " fill-opacity="1" fill-rule="nonzero"/><path fill="#ffdc5d" d="M 51.671875 41.074219 C 51.671875 41.074219 50.96875 40.042969 51.992188 39.339844 C 53.015625 38.632812 53.71875 39.660156 53.71875 39.660156 L 56.976562 44.433594 C 57.085938 44.246094 57.210938 44.0625 57.347656 43.878906 L 52.828125 37.253906 C 52.828125 37.253906 52.125 36.226562 53.148438 35.519531 C 54.171875 34.816406 54.871094 35.84375 54.871094 35.84375 L 59.125 42.074219 C 59.28125 41.945312 59.445312 41.816406 59.609375 41.6875 L 54.683594 34.460938 C 54.683594 34.460938 53.980469 33.433594 55.003906 32.730469 C 56.027344 32.023438 56.726562 33.054688 56.726562 33.054688 L 61.65625 40.277344 C 61.839844 40.164062 62.015625 40.066406 62.199219 39.964844 L 57.589844 33.214844 C 57.589844 33.214844 56.890625 32.1875 57.910156 31.480469 C 58.933594 30.777344 59.636719 31.804688 59.636719 31.804688 L 64.507812 38.945312 L 64.898438 39.515625 L 65.246094 40.03125 C 62.179688 42.144531 61.886719 46.125 63.640625 48.695312 C 63.992188 49.210938 64.503906 48.855469 64.503906 48.855469 C 62.398438 45.773438 63.039062 42.304688 66.109375 40.191406 L 65.203125 35.640625 C 65.203125 35.640625 64.867188 34.441406 66.058594 34.101562 C 67.253906 33.761719 67.589844 34.960938 67.589844 34.960938 L 68.636719 38.078125 C 69.050781 39.316406 69.492188 40.546875 70.074219 41.714844 C 71.722656 45.003906 70.738281 49.09375 67.632812 51.238281 C 64.242188 53.574219 59.609375 52.703125 57.285156 49.296875 C 57.160156 49.117188 57.058594 48.941406 56.960938 48.765625 L 56.933594 48.785156 Z M 51.671875 41.074219 " fill-opacity="1" fill-rule="nonzero"/><path fill="#5dadec" d="M 57.441406 50.238281 C 54.960938 50.238281 52.457031 47.71875 52.457031 45.226562 C 52.457031 44.882812 52.203125 44.601562 51.859375 44.601562 C 51.519531 44.601562 51.214844 44.882812 51.214844 45.226562 C 51.214844 48.964844 53.722656 51.484375 57.441406 51.484375 C 57.785156 51.484375 58.0625 51.179688 58.0625 50.835938 C 58.0625 50.492188 57.785156 50.238281 57.441406 50.238281 Z M 57.441406 50.238281 " fill-opacity="1" fill-rule="nonzero"/><path fill="#5dadec" d="M 54.34375 51.460938 C 52.480469 51.460938 51.242188 50.210938 51.242188 48.34375 C 51.242188 48 50.964844 47.71875 50.621094 47.71875 C 50.277344 47.71875 50 48 50 48.34375 C 50 50.835938 51.859375 52.707031 54.34375 52.707031 C 54.683594 52.707031 54.960938 52.425781 54.960938 52.082031 C 54.960938 51.738281 54.683594 51.460938 54.34375 51.460938 Z M 64.886719 31.511719 C 64.542969 31.511719 64.265625 31.792969 64.265625 32.136719 C 64.265625 32.480469 64.542969 32.761719 64.886719 32.761719 C 67.367188 32.761719 69.847656 34.996094 69.847656 37.746094 C 69.847656 38.089844 70.125 38.371094 70.46875 38.371094 C 70.808594 38.371094 71.085938 38.089844 71.085938 37.746094 C 71.085938 34.308594 68.605469 31.511719 64.886719 31.511719 Z M 64.886719 31.511719 " fill-opacity="1" fill-rule="nonzero"/><g clip-path="url(#id1)"><path fill="#5dadec" d="M 67.988281 30.292969 C 67.644531 30.292969 67.367188 30.546875 67.367188 30.890625 C 67.367188 31.234375 67.644531 31.539062 67.988281 31.539062 C 69.847656 31.539062 71.0625 32.925781 71.0625 34.628906 C 71.0625 34.972656 71.363281 35.253906 71.707031 35.253906 C 72.050781 35.253906 72.300781 34.972656 72.300781 34.628906 C 72.300781 32.238281 70.46875 30.292969 67.988281 30.292969 Z M 67.988281 30.292969 " fill-opacity="1" fill-rule="nonzero"/></g><path fill="#00332c" d="M 0 0 L 0 150 L 510 150 L 510 0 L 0 0 M 505.546875 145.546875 L 4.363281 145.546875 L 4.363281 4.363281 L 505.546875 4.363281 L 505.546875 145.546875 " fill-opacity="1" fill-rule="nonzero"/><g fill="#fa5246" fill-opacity="1"><g transform="translate(28.884464, 50.27834)"><g><path d="M 9.640625 0 L 6.9375 0 L 6.9375 -4.078125 L 3.796875 -4.078125 L 3.796875 0 L 1.078125 0 L 1.078125 -10 L 3.796875 -10 L 3.796875 -6.296875 L 6.9375 -6.296875 L 6.9375 -10 L 9.640625 -10 Z M 9.640625 0 "/></g></g></g><g fill="#fa5246" fill-opacity="1"><g transform="translate(39.604064, 50.27834)"><g><path d="M 3.609375 0 L 0.9375 0 L 0.9375 -7.75 L 3.609375 -7.75 Z M 0.875 -9.671875 C 0.875 -10.078125 0.984375 -10.375 1.203125 -10.5625 C 1.421875 -10.757812 1.78125 -10.859375 2.28125 -10.859375 C 2.78125 -10.859375 3.144531 -10.757812 3.375 -10.5625 C 3.601562 -10.363281 3.71875 -10.066406 3.71875 -9.671875 C 3.71875 -8.890625 3.238281 -8.5 2.28125 -8.5 C 1.34375 -8.5 0.875 -8.890625 0.875 -9.671875 Z M 0.875 -9.671875 "/></g></g></g><g fill="#fa5246" fill-opacity="1"><g transform="translate(44.153994, 50.27834)"><g/></g></g><g fill="#fa5246" fill-opacity="1"><g transform="translate(47.788683, 50.27834)"><g/></g></g><g fill="#fa5246" fill-opacity="1"><g transform="translate(51.423372, 50.27834)"><g/></g></g><g fill="#fa5246" fill-opacity="1"><g transform="translate(55.058061, 50.27834)"><g/></g></g><g fill="#fa5246" fill-opacity="1"><g transform="translate(58.69275, 50.27834)"><g/></g></g><g fill="#fa5246" fill-opacity="1"><g transform="translate(62.327439, 50.27834)"><g/></g></g><g fill="#fa5246" fill-opacity="1"><g transform="translate(65.962129, 50.27834)"><g/></g></g><g fill="#fa5246" fill-opacity="1"><g transform="translate(69.596818, 50.27834)"><g/></g></g><g fill="#fa5246" fill-opacity="1"><g transform="translate(73.231507, 50.27834)"><g/></g></g><g fill="#fa5246" fill-opacity="1"><g transform="translate(76.861023, 50.27834)"><g><path d="M 3.40625 -2.046875 L 3.5 -1.890625 C 3.0625 -0.148438 2.660156 1.128906 2.296875 1.953125 L 0.390625 1.953125 C 0.523438 1.316406 0.65625 0.609375 0.78125 -0.171875 C 0.914062 -0.953125 1.007812 -1.578125 1.0625 -2.046875 Z M 3.40625 -2.046875 "/></g></g></g><g fill="#fa5246" fill-opacity="1"><g transform="translate(81.185757, 50.27834)"><g/></g></g><g fill="#fa5246" fill-opacity="1"><g transform="translate(84.820446, 50.27834)"><g><path d="M 1.078125 0 L 1.078125 -10 L 3.796875 -10 L 3.796875 0 Z M 1.078125 0 "/></g></g></g><g fill="#fa5246" fill-opacity="1"><g transform="translate(89.691749, 50.27834)"><g><path d="M 3.265625 -10 L 2.984375 -6.390625 L 1.109375 -6.390625 L 0.828125 -10 Z M 3.265625 -10 "/></g></g></g><g fill="#fa5246" fill-opacity="1"><g transform="translate(93.777358, 50.27834)"><g><path d="M 10.4375 0 L 10.4375 -4.21875 C 10.4375 -4.738281 10.363281 -5.128906 10.21875 -5.390625 C 10.070312 -5.648438 9.84375 -5.78125 9.53125 -5.78125 C 9.125 -5.78125 8.820312 -5.601562 8.625 -5.25 C 8.4375 -4.90625 8.34375 -4.359375 8.34375 -3.609375 L 8.34375 0 L 5.671875 0 L 5.671875 -4.21875 C 5.671875 -4.738281 5.597656 -5.128906 5.453125 -5.390625 C 5.316406 -5.648438 5.097656 -5.78125 4.796875 -5.78125 C 4.378906 -5.78125 4.070312 -5.59375 3.875 -5.21875 C 3.6875 -4.84375 3.59375 -4.234375 3.59375 -3.390625 L 3.59375 0 L 0.921875 0 L 0.921875 -7.75 L 2.9375 -7.75 L 3.28125 -6.78125 L 3.4375 -6.78125 C 3.632812 -7.144531 3.925781 -7.414062 4.3125 -7.59375 C 4.707031 -7.78125 5.15625 -7.875 5.65625 -7.875 C 6.769531 -7.875 7.550781 -7.535156 8 -6.859375 L 8.21875 -6.859375 C 8.4375 -7.179688 8.738281 -7.429688 9.125 -7.609375 C 9.519531 -7.785156 9.953125 -7.875 10.421875 -7.875 C 11.335938 -7.875 12.015625 -7.640625 12.453125 -7.171875 C 12.890625 -6.703125 13.109375 -5.988281 13.109375 -5.03125 L 13.109375 0 Z M 10.4375 0 "/></g></g></g><g fill="#00473e" fill-opacity="1"><g transform="translate(28.861026, 87.374997)"><g><path d="M 11.640625 -13.375 L 21.5 -13.375 L 21.5 -1.0625 C 18.820312 -0.144531 15.878906 0.3125 12.671875 0.3125 C 9.148438 0.3125 6.425781 -0.707031 4.5 -2.75 C 2.582031 -4.789062 1.625 -7.703125 1.625 -11.484375 C 1.625 -15.171875 2.675781 -18.039062 4.78125 -20.09375 C 6.882812 -22.144531 9.832031 -23.171875 13.625 -23.171875 C 15.0625 -23.171875 16.414062 -23.035156 17.6875 -22.765625 C 18.96875 -22.492188 20.082031 -22.148438 21.03125 -21.734375 L 19.078125 -16.890625 C 17.429688 -17.703125 15.625 -18.109375 13.65625 -18.109375 C 11.851562 -18.109375 10.457031 -17.519531 9.46875 -16.34375 C 8.488281 -15.175781 8 -13.503906 8 -11.328125 C 8 -9.191406 8.441406 -7.5625 9.328125 -6.4375 C 10.222656 -5.320312 11.507812 -4.765625 13.1875 -4.765625 C 14.101562 -4.765625 14.945312 -4.851562 15.71875 -5.03125 L 15.71875 -8.609375 L 11.640625 -8.609375 Z M 11.640625 -13.375 "/></g></g></g><g fill="#00473e" fill-opacity="1"><g transform="translate(52.542742, 87.374997)"><g><path d="M 14.71875 0 L 13.953125 -2.203125 L 13.59375 -2.203125 C 13.082031 -1.390625 12.367188 -0.765625 11.453125 -0.328125 C 10.546875 0.0976562 9.476562 0.3125 8.25 0.3125 C 6.300781 0.3125 4.785156 -0.25 3.703125 -1.375 C 2.617188 -2.507812 2.078125 -4.109375 2.078125 -6.171875 L 2.078125 -17.703125 L 8.1875 -17.703125 L 8.1875 -8.03125 C 8.1875 -6.875 8.347656 -6 8.671875 -5.40625 C 9.003906 -4.8125 9.546875 -4.515625 10.296875 -4.515625 C 11.347656 -4.515625 12.097656 -4.925781 12.546875 -5.75 C 12.992188 -6.582031 13.21875 -7.984375 13.21875 -9.953125 L 13.21875 -17.703125 L 19.328125 -17.703125 L 19.328125 0 Z M 14.71875 0 "/></g></g></g><g fill="#00473e" fill-opacity="1"><g transform="translate(73.975007, 87.374997)"><g><path d="M 8.25 0 L 2.140625 0 L 2.140625 -17.703125 L 8.25 -17.703125 Z M 1.984375 -22.109375 C 1.984375 -23.023438 2.238281 -23.707031 2.75 -24.15625 C 3.257812 -24.601562 4.082031 -24.828125 5.21875 -24.828125 C 6.351562 -24.828125 7.179688 -24.597656 7.703125 -24.140625 C 8.222656 -23.679688 8.484375 -23.003906 8.484375 -22.109375 C 8.484375 -20.316406 7.394531 -19.421875 5.21875 -19.421875 C 3.0625 -19.421875 1.984375 -20.316406 1.984375 -22.109375 Z M 1.984375 -22.109375 "/></g></g></g><g fill="#00473e" fill-opacity="1"><g transform="translate(84.378716, 87.374997)"><g><path d="M 8.21875 0 L 2.109375 0 L 2.109375 -24.3125 L 8.21875 -24.3125 Z M 8.21875 0 "/></g></g></g><g fill="#00473e" fill-opacity="1"><g transform="translate(94.71994, 87.374997)"><g><path d="M 13.25 0 L 13.25 -9.65625 C 13.25 -12.03125 12.546875 -13.21875 11.140625 -13.21875 C 10.140625 -13.21875 9.398438 -12.796875 8.921875 -11.953125 C 8.453125 -11.117188 8.21875 -9.726562 8.21875 -7.78125 L 8.21875 0 L 2.109375 0 L 2.109375 -24.3125 L 8.21875 -24.3125 L 8.21875 -20.859375 C 8.21875 -19.296875 8.132812 -17.515625 7.96875 -15.515625 L 8.25 -15.515625 C 8.832031 -16.429688 9.523438 -17.078125 10.328125 -17.453125 C 11.128906 -17.828125 12.0625 -18.015625 13.125 -18.015625 C 15.101562 -18.015625 16.640625 -17.441406 17.734375 -16.296875 C 18.835938 -15.160156 19.390625 -13.566406 19.390625 -11.515625 L 19.390625 0 Z M 13.25 0 "/></g></g></g><g fill="#00473e" fill-opacity="1"><g transform="translate(116.152205, 87.374997)"><g><path d="M 10.65625 0.3125 C 7.707031 0.3125 5.414062 -0.46875 3.78125 -2.03125 C 2.15625 -3.601562 1.34375 -5.835938 1.34375 -8.734375 C 1.34375 -11.722656 2.097656 -14.015625 3.609375 -15.609375 C 5.117188 -17.210938 7.273438 -18.015625 10.078125 -18.015625 C 12.742188 -18.015625 14.800781 -17.316406 16.25 -15.921875 C 17.707031 -14.535156 18.4375 -12.535156 18.4375 -9.921875 L 18.4375 -7.203125 L 7.515625 -7.203125 C 7.554688 -6.210938 7.914062 -5.4375 8.59375 -4.875 C 9.28125 -4.3125 10.210938 -4.03125 11.390625 -4.03125 C 12.460938 -4.03125 13.445312 -4.128906 14.34375 -4.328125 C 15.25 -4.535156 16.226562 -4.882812 17.28125 -5.375 L 17.28125 -0.984375 C 16.320312 -0.492188 15.332031 -0.15625 14.3125 0.03125 C 13.289062 0.21875 12.070312 0.3125 10.65625 0.3125 Z M 10.296875 -13.859375 C 9.578125 -13.859375 8.972656 -13.628906 8.484375 -13.171875 C 8.003906 -12.722656 7.722656 -12.015625 7.640625 -11.046875 L 12.890625 -11.046875 C 12.867188 -11.898438 12.625 -12.582031 12.15625 -13.09375 C 11.695312 -13.601562 11.078125 -13.859375 10.296875 -13.859375 Z M 10.296875 -13.859375 "/></g></g></g><g fill="#00473e" fill-opacity="1"><g transform="translate(135.928624, 87.374997)"><g><path d="M 12.796875 -18.015625 C 13.328125 -18.015625 13.832031 -17.972656 14.3125 -17.890625 L 14.65625 -17.828125 L 14.109375 -12.0625 C 13.609375 -12.1875 12.914062 -12.25 12.03125 -12.25 C 10.695312 -12.25 9.726562 -11.941406 9.125 -11.328125 C 8.519531 -10.722656 8.21875 -9.847656 8.21875 -8.703125 L 8.21875 0 L 2.109375 0 L 2.109375 -17.703125 L 6.65625 -17.703125 L 7.609375 -14.875 L 7.90625 -14.875 C 8.414062 -15.8125 9.125 -16.566406 10.03125 -17.140625 C 10.945312 -17.722656 11.867188 -18.015625 12.796875 -18.015625 Z M 12.796875 -18.015625 "/></g></g></g><g fill="#00473e" fill-opacity="1"><g transform="translate(150.940582, 87.374997)"><g><path d="M 23.84375 0 L 23.84375 -9.625 C 23.84375 -10.820312 23.675781 -11.71875 23.34375 -12.3125 C 23.019531 -12.914062 22.503906 -13.21875 21.796875 -13.21875 C 20.859375 -13.21875 20.171875 -12.816406 19.734375 -12.015625 C 19.296875 -11.210938 19.078125 -9.957031 19.078125 -8.25 L 19.078125 0 L 12.953125 0 L 12.953125 -9.625 C 12.953125 -10.820312 12.796875 -11.71875 12.484375 -12.3125 C 12.171875 -12.914062 11.664062 -13.21875 10.96875 -13.21875 C 10.007812 -13.21875 9.3125 -12.789062 8.875 -11.9375 C 8.4375 -11.082031 8.21875 -9.6875 8.21875 -7.75 L 8.21875 0 L 2.109375 0 L 2.109375 -17.703125 L 6.71875 -17.703125 L 7.484375 -15.515625 L 7.84375 -15.515625 C 8.3125 -16.328125 8.988281 -16.945312 9.875 -17.375 C 10.769531 -17.800781 11.785156 -18.015625 12.921875 -18.015625 C 15.472656 -18.015625 17.265625 -17.238281 18.296875 -15.6875 L 18.78125 -15.6875 C 19.28125 -16.414062 19.972656 -16.984375 20.859375 -17.390625 C 21.753906 -17.804688 22.738281 -18.015625 23.8125 -18.015625 C 25.90625 -18.015625 27.453125 -17.476562 28.453125 -16.40625 C 29.453125 -15.332031 29.953125 -13.703125 29.953125 -11.515625 L 29.953125 0 Z M 23.84375 0 "/></g></g></g><g fill="#00473e" fill-opacity="1"><g transform="translate(182.932768, 87.374997)"><g><path d="M 10.65625 0.3125 C 7.707031 0.3125 5.414062 -0.46875 3.78125 -2.03125 C 2.15625 -3.601562 1.34375 -5.835938 1.34375 -8.734375 C 1.34375 -11.722656 2.097656 -14.015625 3.609375 -15.609375 C 5.117188 -17.210938 7.273438 -18.015625 10.078125 -18.015625 C 12.742188 -18.015625 14.800781 -17.316406 16.25 -15.921875 C 17.707031 -14.535156 18.4375 -12.535156 18.4375 -9.921875 L 18.4375 -7.203125 L 7.515625 -7.203125 C 7.554688 -6.210938 7.914062 -5.4375 8.59375 -4.875 C 9.28125 -4.3125 10.210938 -4.03125 11.390625 -4.03125 C 12.460938 -4.03125 13.445312 -4.128906 14.34375 -4.328125 C 15.25 -4.535156 16.226562 -4.882812 17.28125 -5.375 L 17.28125 -0.984375 C 16.320312 -0.492188 15.332031 -0.15625 14.3125 0.03125 C 13.289062 0.21875 12.070312 0.3125 10.65625 0.3125 Z M 10.296875 -13.859375 C 9.578125 -13.859375 8.972656 -13.628906 8.484375 -13.171875 C 8.003906 -12.722656 7.722656 -12.015625 7.640625 -11.046875 L 12.890625 -11.046875 C 12.867188 -11.898438 12.625 -12.582031 12.15625 -13.09375 C 11.695312 -13.601562 11.078125 -13.859375 10.296875 -13.859375 Z M 10.296875 -13.859375 "/></g></g></g><g fill="#00473e" fill-opacity="1"><g transform="translate(202.709188, 87.374997)"><g/></g></g><g fill="#00473e" fill-opacity="1"><g transform="translate(211.019658, 87.374997)"><g><path d="M 12.640625 -18.109375 C 11.171875 -18.109375 10.023438 -17.503906 9.203125 -16.296875 C 8.378906 -15.097656 7.96875 -13.441406 7.96875 -11.328125 C 7.96875 -6.929688 9.640625 -4.734375 12.984375 -4.734375 C 13.992188 -4.734375 14.972656 -4.875 15.921875 -5.15625 C 16.867188 -5.4375 17.820312 -5.773438 18.78125 -6.171875 L 18.78125 -0.953125 C 16.875 -0.109375 14.71875 0.3125 12.3125 0.3125 C 8.863281 0.3125 6.21875 -0.6875 4.375 -2.6875 C 2.539062 -4.6875 1.625 -7.578125 1.625 -11.359375 C 1.625 -13.722656 2.066406 -15.800781 2.953125 -17.59375 C 3.847656 -19.382812 5.128906 -20.757812 6.796875 -21.71875 C 8.472656 -22.6875 10.441406 -23.171875 12.703125 -23.171875 C 15.171875 -23.171875 17.53125 -22.632812 19.78125 -21.5625 L 17.890625 -16.703125 C 17.046875 -17.097656 16.203125 -17.429688 15.359375 -17.703125 C 14.515625 -17.972656 13.609375 -18.109375 12.640625 -18.109375 Z M 12.640625 -18.109375 "/></g></g></g><g fill="#00473e" fill-opacity="1"><g transform="translate(231.780211, 87.374997)"><g><path d="M 19.015625 -8.890625 C 19.015625 -5.992188 18.234375 -3.734375 16.671875 -2.109375 C 15.117188 -0.492188 12.941406 0.3125 10.140625 0.3125 C 7.453125 0.3125 5.3125 -0.515625 3.71875 -2.171875 C 2.132812 -3.828125 1.34375 -6.066406 1.34375 -8.890625 C 1.34375 -11.773438 2.117188 -14.015625 3.671875 -15.609375 C 5.234375 -17.210938 7.421875 -18.015625 10.234375 -18.015625 C 11.972656 -18.015625 13.507812 -17.644531 14.84375 -16.90625 C 16.175781 -16.164062 17.203125 -15.101562 17.921875 -13.71875 C 18.648438 -12.34375 19.015625 -10.734375 19.015625 -8.890625 Z M 7.546875 -8.890625 C 7.546875 -7.367188 7.75 -6.207031 8.15625 -5.40625 C 8.5625 -4.613281 9.242188 -4.21875 10.203125 -4.21875 C 11.148438 -4.21875 11.816406 -4.613281 12.203125 -5.40625 C 12.597656 -6.207031 12.796875 -7.367188 12.796875 -8.890625 C 12.796875 -10.398438 12.597656 -11.539062 12.203125 -12.3125 C 11.804688 -13.082031 11.128906 -13.46875 10.171875 -13.46875 C 9.234375 -13.46875 8.5625 -13.082031 8.15625 -12.3125 C 7.75 -11.550781 7.546875 -10.410156 7.546875 -8.890625 Z M 7.546875 -8.890625 "/></g></g></g><g fill="#00473e" fill-opacity="1"><g transform="translate(252.165869, 87.374997)"><g><path d="M 15.78125 -5.4375 C 15.78125 -3.539062 15.132812 -2.109375 13.84375 -1.140625 C 12.550781 -0.171875 10.695312 0.3125 8.28125 0.3125 C 6.96875 0.3125 5.828125 0.238281 4.859375 0.09375 C 3.890625 -0.0390625 2.898438 -0.296875 1.890625 -0.671875 L 1.890625 -5.5625 C 2.835938 -5.144531 3.875 -4.800781 5 -4.53125 C 6.132812 -4.257812 7.144531 -4.125 8.03125 -4.125 C 9.351562 -4.125 10.015625 -4.425781 10.015625 -5.03125 C 10.015625 -5.34375 9.828125 -5.617188 9.453125 -5.859375 C 9.085938 -6.109375 8.015625 -6.585938 6.234375 -7.296875 C 4.609375 -7.960938 3.472656 -8.71875 2.828125 -9.5625 C 2.179688 -10.414062 1.859375 -11.492188 1.859375 -12.796875 C 1.859375 -14.441406 2.492188 -15.722656 3.765625 -16.640625 C 5.035156 -17.554688 6.832031 -18.015625 9.15625 -18.015625 C 10.320312 -18.015625 11.414062 -17.882812 12.4375 -17.625 C 13.46875 -17.375 14.535156 -17.003906 15.640625 -16.515625 L 13.984375 -12.578125 C 13.171875 -12.941406 12.3125 -13.25 11.40625 -13.5 C 10.5 -13.757812 9.757812 -13.890625 9.1875 -13.890625 C 8.1875 -13.890625 7.6875 -13.644531 7.6875 -13.15625 C 7.6875 -12.851562 7.859375 -12.59375 8.203125 -12.375 C 8.554688 -12.164062 9.566406 -11.734375 11.234375 -11.078125 C 12.472656 -10.566406 13.394531 -10.066406 14 -9.578125 C 14.613281 -9.085938 15.0625 -8.507812 15.34375 -7.84375 C 15.632812 -7.1875 15.78125 -6.382812 15.78125 -5.4375 Z M 15.78125 -5.4375 "/></g></g></g><g fill="#00473e" fill-opacity="1"><g transform="translate(269.224202, 87.374997)"><g><path d="M 10.78125 -4.515625 C 11.601562 -4.515625 12.585938 -4.71875 13.734375 -5.125 L 13.734375 -0.671875 C 12.910156 -0.316406 12.125 -0.0664062 11.375 0.078125 C 10.632812 0.234375 9.765625 0.3125 8.765625 0.3125 C 6.710938 0.3125 5.234375 -0.1875 4.328125 -1.1875 C 3.421875 -2.195312 2.96875 -3.742188 2.96875 -5.828125 L 2.96875 -13.125 L 0.828125 -13.125 L 0.828125 -15.609375 L 3.546875 -17.53125 L 5.125 -21.25 L 9.125 -21.25 L 9.125 -17.703125 L 13.46875 -17.703125 L 13.46875 -13.125 L 9.125 -13.125 L 9.125 -6.234375 C 9.125 -5.085938 9.675781 -4.515625 10.78125 -4.515625 Z M 10.78125 -4.515625 "/></g></g></g><g fill="#00473e" fill-opacity="1"><g transform="translate(283.939358, 87.374997)"><g><path d="M 13.65625 0 L 12.484375 -2.34375 L 12.359375 -2.34375 C 11.535156 -1.320312 10.695312 -0.625 9.84375 -0.25 C 8.988281 0.125 7.882812 0.3125 6.53125 0.3125 C 4.863281 0.3125 3.550781 -0.1875 2.59375 -1.1875 C 1.632812 -2.1875 1.15625 -3.59375 1.15625 -5.40625 C 1.15625 -7.289062 1.8125 -8.691406 3.125 -9.609375 C 4.4375 -10.535156 6.335938 -11.054688 8.828125 -11.171875 L 11.78125 -11.265625 L 11.78125 -11.515625 C 11.78125 -12.972656 11.0625 -13.703125 9.625 -13.703125 C 8.332031 -13.703125 6.691406 -13.265625 4.703125 -12.390625 L 2.9375 -16.421875 C 5 -17.484375 7.601562 -18.015625 10.75 -18.015625 C 13.019531 -18.015625 14.773438 -17.453125 16.015625 -16.328125 C 17.265625 -15.203125 17.890625 -13.628906 17.890625 -11.609375 L 17.890625 0 Z M 9.125 -4 C 9.863281 -4 10.492188 -4.234375 11.015625 -4.703125 C 11.546875 -5.171875 11.8125 -5.78125 11.8125 -6.53125 L 11.8125 -7.90625 L 10.40625 -7.84375 C 8.394531 -7.769531 7.390625 -7.03125 7.390625 -5.625 C 7.390625 -4.539062 7.96875 -4 9.125 -4 Z M 9.125 -4 "/></g></g></g><g fill="#00473e" fill-opacity="1"><g transform="translate(303.871989, 87.374997)"><g/></g></g><g fill="#00473e" fill-opacity="1"><g transform="translate(312.182459, 87.374997)"><g><path d="M 1.34375 -2.59375 C 1.34375 -3.550781 1.625 -4.289062 2.1875 -4.8125 C 2.757812 -5.332031 3.585938 -5.59375 4.671875 -5.59375 C 5.703125 -5.59375 6.492188 -5.332031 7.046875 -4.8125 C 7.597656 -4.289062 7.875 -3.550781 7.875 -2.59375 C 7.875 -1.65625 7.585938 -0.921875 7.015625 -0.390625 C 6.453125 0.128906 5.671875 0.390625 4.671875 0.390625 C 3.640625 0.390625 2.828125 0.128906 2.234375 -0.390625 C 1.640625 -0.910156 1.34375 -1.644531 1.34375 -2.59375 Z M 1.34375 -14.9375 C 1.34375 -15.882812 1.628906 -16.617188 2.203125 -17.140625 C 2.773438 -17.660156 3.597656 -17.921875 4.671875 -17.921875 C 5.703125 -17.921875 6.492188 -17.660156 7.046875 -17.140625 C 7.597656 -16.617188 7.875 -15.882812 7.875 -14.9375 C 7.875 -14 7.59375 -13.265625 7.03125 -12.734375 C 6.46875 -12.203125 5.679688 -11.9375 4.671875 -11.9375 C 3.609375 -11.9375 2.785156 -12.203125 2.203125 -12.734375 C 1.628906 -13.265625 1.34375 -14 1.34375 -14.9375 Z M 1.34375 -14.9375 "/></g></g></g><g fill="#00473e" fill-opacity="1"><g transform="translate(321.4302, 87.374997)"><g><path d="M 10.34375 -9.09375 C 10.34375 -6.144531 9.96875 -3.460938 9.21875 -1.046875 C 8.476562 1.359375 7.390625 3.394531 5.953125 5.0625 L 0.890625 5.0625 C 2.203125 3.269531 3.207031 1.144531 3.90625 -1.3125 C 4.601562 -3.78125 4.953125 -6.382812 4.953125 -9.125 C 4.953125 -11.882812 4.609375 -14.492188 3.921875 -16.953125 C 3.234375 -19.421875 2.210938 -21.597656 0.859375 -23.484375 L 5.953125 -23.484375 C 7.398438 -21.753906 8.492188 -19.660156 9.234375 -17.203125 C 9.972656 -14.742188 10.34375 -12.039062 10.34375 -9.09375 Z M 3.859375 -23.203125 Z M 3.859375 -23.203125 "/></g></g></g><g fill="#00473e" fill-opacity="1"><g transform="translate(332.903981, 87.374997)"><g/></g></g><g fill="#00473e" fill-opacity="1"><g transform="translate(341.214451, 87.374997)"><g/></g></g></svg>